<svg xmlns="http://www.w3.org/2000/svg" width="1024" height="1024" fill="none" viewBox="0 0 1024 1024"><rect width="824" height="824" x="100" y="100" fill="#000" rx="185.4"/><g transform="translate(266.3 230.3) scale(0.599)"><rect width="100" height="100" y="600" fill="#fff" rx="16"/><rect width="100" height="100" y="720" fill="#fff" rx="16"/><rect width="100" height="100" x="240" y="840" fill="#fff" rx="16"/><rect width="100" height="100" x="240" y="720" fill="#fff" rx="16"/><rect width="100" height="100" x="120" y="840" fill="#fff" rx="16"/><rect width="100" height="100" x="120" y="600" fill="#fff" rx="16"/><rect width="100" height="100" x="240" y="600" fill="#fff" rx="16"/><rect width="100" height="100" y="480" fill="#fff" rx="16"/><rect width="100" height="100" y="360" fill="#fff" rx="16"/><rect width="100" height="100" x="480" y="840" fill="#fff" rx="16"/><rect width="100" height="100" x="480" y="720" fill="#fff" rx="16"/><rect width="100" height="100" x="120" y="360" fill="#fff" rx="16"/><rect width="100" height="100" x="120" y="240" fill="#fff" rx="16"/><rect width="100" height="100" x="240" y="360" fill="#fff" rx="16"/><rect width="100" height="100" x="600" y="720" fill="#fff" rx="16"/><rect width="100" height="100" x="480" y="600" fill="#fff" rx="16"/><rect width="100" height="100" x="360" y="360" fill="#fff" rx="16"/><rect width="100" height="100" x="240" y="240" fill="#fff" rx="16"/><rect width="100" height="100" x="600" y="600" fill="#fff" rx="16"/><rect width="100" height="100" x="720" y="600" fill="#fff" rx="16"/><rect width="100" height="100" x="720" y="480" fill="#fff" rx="16"/><rect width="100" height="100" x="240" y="120" fill="#fff" rx="16"/><rect width="100" height="100" x="600" y="380" fill="#fff" rx="16"/><rect width="100" height="100" x="720" y="240" fill="#fff" rx="16"/><rect width="100" height="100" x="720" fill="#fff" rx="16"/><rect width="100" height="100" x="480" y="240" fill="#fff" rx="16"/><rect width="100" height="100" x="480" fill="#fff" rx="16"/><rect width="100" height="100" x="120" y="480" fill="#fff" rx="16"/><rect width="100" height="100" x="240" y="480" fill="#fff" rx="16"/><rect width="100" height="100" x="360" y="840" fill="#fff" rx="16"/><rect width="100" height="100" x="360" y="720" fill="#fff" rx="16"/><rect width="100" height="100" x="360" y="600" fill="#fff" rx="16"/><rect width="100" height="100" x="360" y="480" fill="#fff" rx="16"/><rect width="100" height="100" x="120" y="720" fill="#fff" rx="16"/></g></svg>